<svg width="300" height="300" xmlns="http://www.w3.org/2000/svg" version="1.1" xml:space="preserve">
 <style>
    g.level0 {
        fill: #3A3B3C;
        fill-opacity: 100;
        stroke: #3A3B3C;
        stroke-opacity: 100;
    }
    g.level1 {
        fill: #26d07c;
        fill-opacity: 100;
        stroke: #26d07c;
        stroke-opacity: 100;
    }
    rect {
        fill: #000000;
        stroke: #000000;
    }
    g.level2 {
        fill: #ffd100;
        fill-opacity: 100;
        stroke: #ffd100;
        stroke-opacity: 100;
    }
    g.level2 > #dial5, 
    g.level3 > #dial5, g.level3 > #dial4, 
    g.level4 > #dial5, g.level4 > #dial4, g.level4 > #dial3, 
    g.level5 > #dial5, g.level5 > #dial4, g.level5 > #dial3, g.level5 > #dial2 {
        fill-opacity: 0;
    }
    g.level3 {
        fill: #ff8200;
        fill-opacity: 100;
        stroke: #ff8200;
        stroke-opacity: 100;
    }
    g.level4 {
        fill: #d5392e;
        fill-opacity: 100;
        stroke: #d5392e;
        stroke-opacity: 100;
    }
    g.level5 {
        fill: #000000;
        fill-opacity: 100;
        stroke: #000000;
        stroke-opacity: 100;
    }
    g.level5 > rect {
        fill: #d5392e;
        stroke: #d5392e;
    }
 </style>
 <g class="level0">
  <title>Unknown</title>
  <rect id="background" width="100%" height="100%" /> 
  <text id="title" stroke-width="0" x="150" y="50" text-anchor="middle" font-size="36" font-family="Newsreader" xml:space="preserve">
  Unknown
  </text>
<path id="dial5" class="st0"
            d="m270.81444,137.67406l-25.65,18.64c-1.5,1.09 -1.9,3.16 -0.9,4.73c9.73,15.27 15.84,33.06 17.15,52.17c0.13,1.84 1.67,3.26 3.51,3.26l31.55,0c2.03,0 3.63,-1.71 3.52,-3.73c-1.39,-27.24 -10.08,-52.59 -24.14,-74.13c-1.1,-1.7 -3.4,-2.13 -5.04,-0.94z" />
        <path id="dial4" class="st0"
            d="m240.39444,149.84915l25.69,-18.66c1.64,-1.19 1.93,-3.51 0.66,-5.09c-16.48,-20.35 -38.17,-36.32 -63.02,-45.86c-1.89,-0.73 -4.01,0.27 -4.64,2.2l-9.87,30.37c-0.57,1.76 0.31,3.67 2.03,4.35c17.36,6.9 32.58,18.03 44.39,32.12c1.19,1.41 3.27,1.65 4.76,0.57z" />
        <path id="dial3" class="st0"
            d="m151.00444,108.99c9.44,0 18.61,1.17 27.37,3.38c1.79,0.45 3.62,-0.57 4.2,-2.33l9.88,-30.4c0.63,-1.93 -0.5,-3.98 -2.45,-4.5c-12.45,-3.35 -25.52,-5.14 -39,-5.14c-13.48,0 -26.55,1.79 -38.99,5.14c-1.96,0.53 -3.08,2.58 -2.45,4.5l9.88,30.4c0.57,1.76 2.4,2.78 4.2,2.33c8.75,-2.2 17.92,-3.38 27.36,-3.38z" />
        <path id="dial2" class="st0"
            d="m110.79444,112.80915l-9.87,-30.37c-0.63,-1.93 -2.75,-2.93 -4.64,-2.2c-24.85,9.55 -46.53,25.52 -63.02,45.87c-1.28,1.58 -0.98,3.9 0.66,5.09l25.69,18.66c1.49,1.08 3.57,0.84 4.76,-0.58c11.81,-14.09 27.03,-25.22 44.39,-32.12c1.71,-0.68 2.6,-2.59 2.03,-4.35z" />
        <path id="dial1" class="st0"
            d="m54.84444,156.31407l-25.65,-18.64c-1.64,-1.19 -3.93,-0.76 -5.04,0.94c-14.06,21.54 -22.75,46.88 -24.15,74.13c-0.1,2.02 1.5,3.73 3.52,3.73l31.55,0c1.84,0 3.38,-1.42 3.51,-3.26c1.31,-19.11 7.43,-36.9 17.15,-52.17c1.01,-1.57 0.61,-3.64 -0.89,-4.73z" />
    </g>
</svg>