<svg width="64" height="64" xmlns="http://www.w3.org/2000/svg" with="122" data-name="Layer 1">

 <g>
  <title>Layer 1</title>
  <path stroke="null" id="svg_1" fill="#FFFFFF" d="m46.46903,31.41024l-17.61657,17.84916c-0.08029,0.07011 -0.20877,0.08413 -0.28906,0.02804c-0.04818,-0.04206 -0.08029,-0.11217 -0.06424,-0.16826l1.73436,-7.99216c0.04818,-0.22434 -0.12847,-0.44868 -0.38541,-0.49075c-0.08029,-0.01402 -0.16059,0 -0.22482,0l-4.06289,1.03758c-0.36935,0.08413 -0.65841,0.36455 -0.72265,0.70107l-3.93442,20.45713c-0.08029,0.53281 0.43359,0.75715 0.86718,0.30847l31.33083,-32.08082c0.22482,-0.25238 0.25694,-0.5889 0.06424,-0.8553c-1.14018,-1.52833 -2.82636,-2.6921 -4.8016,-3.28099c-5.90966,-2.03309 -12.78285,1.55637 -17.47204,3.77174c-12.01203,5.53843 -19.20639,0.40662 -20.66775,-0.91139c-0.16059,-0.14021 -0.36935,-0.21032 -0.59418,-0.21032l-5.12278,0c-0.17665,0 -0.32118,0.12619 -0.33724,0.28043c0,0.07011 0.03212,0.12619 0.06424,0.18228c1.12412,1.30398 4.5286,4.9916 9.29808,6.36569c4.2556,1.14975 10.98426,2.20135 19.80057,-1.86484l0.11241,-0.05609c4.73736,-2.35558 9.76379,-4.36064 12.8792,-3.44925c0,0 0.40147,0.12619 0.17665,0.42064m-14.37268,-15.19913c-7.40313,3.82783 -12.39744,4.26249 -14.22815,3.36512c-0.25694,-0.12619 -0.36935,-0.37858 -0.30512,-0.61694l3.30812,-13.74091c0.04818,-0.18228 0.22482,-0.30847 0.43359,-0.30847l9.89226,0c0.12847,0 0.25694,0.08413 0.25694,0.21032c0,0.02804 0,0.04206 0,0.07011l-1.86283,7.13686c-0.04818,0.14021 0.04818,0.28043 0.20877,0.32249c0.06424,0.01402 0.14453,0 0.20877,-0.02804l4.2556,-1.65452c0.25694,-0.09815 0.44965,-0.30847 0.49782,-0.54683l2.36065,-9.08583c0.09635,-0.32249 -0.12847,-0.64498 -0.49782,-0.72911c-0.06424,-0.01402 -0.12847,-0.02804 -0.17665,-0.02804l-19.07792,0c-0.35329,0 -0.64235,0.21032 -0.70659,0.50477l-4.70525,19.54574c-0.06424,0.23836 0,0.49075 0.17665,0.67302l0.49782,0.56085c0.38541,0.42064 2.64971,2.48178 7.54766,2.48178c3.30812,0 7.27466,-0.96747 14.96686,-4.45879c0.12847,-0.05609 11.89961,-6.23949 18.61222,0.659c0.14453,0.15423 0.36935,0.25238 0.61024,0.25238l5.10672,0c0.17665,0 0.32118,-0.12619 0.32118,-0.28043c0,-0.05609 -0.01606,-0.11217 -0.04818,-0.15423c-8.54331,-11.77792 -21.3904,-7.38924 -27.62123,-4.15032" class="cls-1"/>
 </g>
</svg>